<?xml version="1.0" encoding="iso-8859-1"?>
<!-- Generator: Adobe Illustrator 25.2.1, SVG Export Plug-In . SVG Version: 6.00 Build 0)  -->
<svg version="1.1" id="Layer_1" xmlns="http://www.w3.org/2000/svg" xmlns:xlink="http://www.w3.org/1999/xlink" x="0px" y="0px"
	 viewBox="0 0 48 48" style="enable-background:new 0 0 48 48;" xml:space="preserve">
<linearGradient id="SVGID_1_" gradientUnits="userSpaceOnUse" x1="16.3094" y1="1.1013" x2="23.0225" y2="19.5455">
	<stop  offset="0" style="stop-color:#F44F5A"/>
	<stop  offset="0.443" style="stop-color:#EE3D4A"/>
	<stop  offset="1" style="stop-color:#E52030"/>
</linearGradient>
<path style="fill:url(#SVGID_1_);" d="M26,17h-8c-3.866,0-7-3.134-7-7v0c0-3.866,3.134-7,7-7h8V17z"/>
<linearGradient id="SVGID_2_" gradientUnits="userSpaceOnUse" x1="15.64" y1="14.636" x2="22.3136" y2="32.9715">
	<stop  offset="0" style="stop-color:#AE4CD5"/>
	<stop  offset="1" style="stop-color:#9331BF"/>
</linearGradient>
<path style="fill:url(#SVGID_2_);" d="M25,31h-7c-3.866,0-7-3.134-7-7v0c0-3.866,3.134-7,7-7h7V31z"/>
<linearGradient id="SVGID_3_" gradientUnits="userSpaceOnUse" x1="14.8104" y1="26.3566" x2="21.8207" y2="45.6172">
	<stop  offset="0" style="stop-color:#33C481"/>
	<stop  offset="1" style="stop-color:#21A366"/>
</linearGradient>
<path style="fill:url(#SVGID_3_);" d="M18,45L18,45c-3.866,0-7-3.134-7-7v0c0-3.866,3.134-7,7-7h7v7C25,41.866,21.866,45,18,45z"/>
<linearGradient id="SVGID_4_" gradientUnits="userSpaceOnUse" x1="27.4985" y1="0.5124" x2="34.1192" y2="18.7024">
	<stop  offset="0" style="stop-color:#F09CA2"/>
	<stop  offset="1" style="stop-color:#EB6773"/>
</linearGradient>
<path style="fill:url(#SVGID_4_);" d="M32,17h-7V3h7c3.866,0,7,3.134,7,7v0C39,13.866,35.866,17,32,17z"/>
<linearGradient id="SVGID_5_" gradientUnits="userSpaceOnUse" x1="28.714" y1="14.9718" x2="34.8573" y2="31.8503">
	<stop  offset="0" style="stop-color:#32BDEF"/>
	<stop  offset="1" style="stop-color:#1EA2E4"/>
</linearGradient>
<circle style="fill:url(#SVGID_5_);" cx="32" cy="24" r="7"/>
</svg>