<?xml version="1.0" encoding="iso-8859-1"?>
<!-- Generator: Adobe Illustrator 25.4.1, SVG Export Plug-In . SVG Version: 6.00 Build 0)  -->
<svg version="1.1" id="Layer_1" xmlns="http://www.w3.org/2000/svg" xmlns:xlink="http://www.w3.org/1999/xlink" x="0px" y="0px"
	 viewBox="0 0 48 48" style="enable-background:new 0 0 48 48;" xml:space="preserve">
<linearGradient id="SVGID_1_" gradientUnits="userSpaceOnUse" x1="5" y1="24" x2="43" y2="24">
	<stop  offset="0.002" style="stop-color:#427FDB"/>
	<stop  offset="0.397" style="stop-color:#2668CB"/>
	<stop  offset="0.763" style="stop-color:#1358BF"/>
	<stop  offset="1" style="stop-color:#0C52BB"/>
</linearGradient>
<path style="fill-rule:evenodd;clip-rule:evenodd;fill:url(#SVGID_1_);" d="M22.903,3.286c0.679-0.381,1.515-0.381,2.193,0
	c3.355,1.883,13.451,7.551,16.807,9.434C42.582,13.1,43,13.804,43,14.566c0,3.766,0,15.101,0,18.867
	c0,0.762-0.418,1.466-1.097,1.847c-3.355,1.883-13.451,7.551-16.807,9.434c-0.679,0.381-1.515,0.381-2.193,0
	c-3.355-1.883-13.451-7.551-16.807-9.434C5.418,34.899,5,34.196,5,33.434c0-3.766,0-15.101,0-18.867
	c0-0.762,0.418-1.466,1.097-1.847C9.451,10.837,19.549,5.169,22.903,3.286z"/>
<linearGradient id="SVGID_00000042737542032126809520000014522317559539394448_" gradientUnits="userSpaceOnUse" x1="5" y1="18.7019" x2="42.487" y2="18.7019">
	<stop  offset="0" style="stop-color:#32BDEF"/>
	<stop  offset="1" style="stop-color:#1EA2E4"/>
</linearGradient>
<path style="fill-rule:evenodd;clip-rule:evenodd;fill:url(#SVGID_00000042737542032126809520000014522317559539394448_);" d="
	M5.304,34.404C5.038,34.048,5,33.71,5,33.255c0-3.744,0-15.014,0-18.759c0-0.758,0.417-1.458,1.094-1.836
	c3.343-1.872,13.405-7.507,16.748-9.38c0.677-0.379,1.594-0.371,2.271,0.008c3.343,1.872,13.371,7.459,16.714,9.331
	c0.27,0.152,0.476,0.335,0.66,0.576L5.304,34.404z"/>
<path style="fill-rule:evenodd;clip-rule:evenodd;fill:#FFFFFF;" d="M24,10c7.727,0,14,6.273,14,14s-6.273,14-14,14s-14-6.273-14-14
	S16.273,10,24,10z M24,17c3.863,0,7,3.136,7,7c0,3.863-3.137,7-7,7s-7-3.137-7-7C17,20.136,20.136,17,24,17z"/>
<linearGradient id="SVGID_00000026149919936186378310000001241445968911749543_" gradientUnits="userSpaceOnUse" x1="23.593" y1="23.8525" x2="43.0001" y2="23.8525">
	<stop  offset="0" style="stop-color:#2AA4F4"/>
	<stop  offset="1" style="stop-color:#007AD9"/>
</linearGradient>
<path style="fill-rule:evenodd;clip-rule:evenodd;fill:url(#SVGID_00000026149919936186378310000001241445968911749543_);" d="
	M42.485,13.205c0.516,0.483,0.506,1.211,0.506,1.784c0,3.795-0.032,14.589,0.009,18.384c0.004,0.396-0.127,0.813-0.323,1.127
	L23.593,24L42.485,13.205z"/>
<g>
	<g style="opacity:0.05;">
		<path d="M33,21v2h2v2h-2v2h-2v-2h-2v-2h2v-2H33 M34,20h-1h-2h-1v1v1h-1h-1v1v2v1h1h1v1v1h1h2h1v-1v-1h1h1v-1v-2v-1h-1h-1v-1V20
			L34,20z"/>
		<path d="M40,21v2h2v2h-2v2h-2v-2h-2v-2h2v-2H40 M41,20h-1h-2h-1v1v1h-1h-1v1v2v1h1h1v1v1h1h2h1v-1v-1h1h1v-1v-2v-1h-1h-1v-1V20
			L41,20z"/>
	</g>
	<g style="opacity:0.07;">
		<path d="M33,21v2h2v2h-2v2h-2v-2h-2v-2h2v-2H33 M33.5,20.5H33h-2h-0.5V21v1.5H29h-0.5V23v2v0.5H29h1.5V27v0.5H31h2h0.5V27v-1.5H35
			h0.5V25v-2v-0.5H35h-1.5V21V20.5L33.5,20.5z"/>
		<path d="M40,21v2h2v2h-2v2h-2v-2h-2v-2h2v-2H40 M40.5,20.5H40h-2h-0.5V21v1.5H36h-0.5V23v2v0.5H36h1.5V27v0.5H38h2h0.5V27v-1.5H42
			h0.5V25v-2v-0.5H42h-1.5V21V20.5L40.5,20.5z"/>
	</g>
	<g>
		<polygon style="fill:#FFFFFF;" points="33,21 31,21 31,23 29,23 29,25 31,25 31,27 33,27 33,25 35,25 35,23 33,23 		"/>
		<polygon style="fill:#FFFFFF;" points="42,23 40,23 40,21 38,21 38,23 36,23 36,25 38,25 38,27 40,27 40,25 42,25 		"/>
	</g>
</g>
<g>
	<g style="opacity:0.05;">
		<path d="M24,10c5.128,0,9.602,2.771,12.041,6.887l-6.073,3.47C28.737,18.347,26.527,17,24,17c-3.864,0-7,3.136-7,7
			c0,3.863,3.137,7,7,7c2.57,0,4.812-1.392,6.029-3.459l6.132,3.374C33.75,35.142,29.21,38,24,38c-7.727,0-14-6.273-14-14
			S16.273,10,24,10 M24,9C15.729,9,9,15.729,9,24s6.729,15,15,15c5.367,0,10.36-2.908,13.03-7.59l0.503-0.882l-0.89-0.49
			l-6.132-3.374l-0.851-0.468l-0.493,0.837C28.09,28.863,26.11,30,24,30c-3.308,0-6-2.692-6-6s2.692-6,6-6
			c2.099,0,4.011,1.076,5.115,2.879l0.507,0.828l0.842-0.481l6.073-3.47l0.882-0.504l-0.518-0.874C34.205,11.827,29.262,9,24,9L24,9
			z"/>
	</g>
	<g style="opacity:0.07;">
		<path d="M24,10c5.128,0,9.602,2.771,12.041,6.887l-6.073,3.47C28.737,18.347,26.527,17,24,17c-3.864,0-7,3.136-7,7
			c0,3.863,3.137,7,7,7c2.57,0,4.812-1.392,6.029-3.459l6.132,3.374C33.75,35.142,29.21,38,24,38c-7.727,0-14-6.273-14-14
			S16.273,10,24,10 M24,9.5C16.005,9.5,9.5,16.005,9.5,24S16.005,38.5,24,38.5c5.188,0,10.014-2.812,12.595-7.337l0.252-0.441
			l-0.445-0.245l-6.132-3.374l-0.425-0.234l-0.246,0.418C28.431,29.269,26.286,30.5,24,30.5c-3.584,0-6.5-2.916-6.5-6.5
			s2.916-6.5,6.5-6.5c2.275,0,4.346,1.166,5.542,3.118l0.253,0.414l0.421-0.241l6.073-3.47l0.441-0.252l-0.259-0.437
			C33.864,12.233,29.086,9.5,24,9.5L24,9.5z"/>
	</g>
</g>
</svg>