<?xml version="1.0" encoding="iso-8859-1"?><!-- Generator: Adobe Illustrator 23.0.3, SVG Export Plug-In . SVG Version: 6.00 Build 0)  --><svg xmlns="http://www.w3.org/2000/svg" xmlns:xlink="http://www.w3.org/1999/xlink" viewBox="0 0 48 48" width="48px" height="48px"><polygon id="Shape" style="fill-rule:evenodd;clip-rule:evenodd;fill:#26C6DA;" points="32.466,9.628 44.737,19.8 40.275,28.791   32.925,26.756 26.494,26.756 "/><polygon style="fill-rule:evenodd;clip-rule:evenodd;fill:#66BB6A;" points="30.431,9.234 20.981,3 5.559,9.431 3,36.6 17.372,45   21.244,40.472 20.062,16.256 "/><polygon style="fill-rule:evenodd;clip-rule:evenodd;fill:#9CCC65;" points="35.944,14.484 21.375,14.484 34.237,3 "/><polygon style="fill-rule:evenodd;clip-rule:evenodd;fill:#FFEE58;" points="45,40.537 32.203,44.934 15.141,40.144 20.063,16.256   22.031,14.484 32.466,13.5 31.481,23.934 39.75,20.719 "/><rect id="Rectangle-path" x="11" y="11" style="fill-rule:evenodd;clip-rule:evenodd;fill:#212121;" width="26" height="26"/><rect x="14" y="33" style="fill-rule:evenodd;clip-rule:evenodd;fill:#FFFFFF;" width="10" height="2"/><path style="fill-rule:evenodd;clip-rule:evenodd;fill:#FFFFFF;" d="M14.075,14h4.633C21.433,14,23,15.533,23,17.8l0,0  c0,2.533-2.044,3.867-4.565,3.867h-1.908V25h-2.453V14L14.075,14L14.075,14z M20.479,17.933L20.479,17.933  c0-1.067-0.749-1.667-2.044-1.667h-1.908v3.4h1.976C19.842,19.667,20.479,18.867,20.479,17.933z"/><path style="fill-rule:evenodd;clip-rule:evenodd;fill:#FFFFFF;" d="M24.819,19.501L24.819,19.501  c-0.033-1.468,0.536-2.886,1.575-3.925c1.038-1.038,2.456-1.607,3.925-1.575c1.982,0,3.197,0.639,4.156,1.663l-1.471,1.727  c-0.831-0.767-1.663-1.215-2.686-1.215c-1.79,0-3.069,1.471-3.069,3.325l0,0c0,1.79,1.279,3.325,3.069,3.325  c1.215,0,1.982-0.512,2.814-1.215l1.471,1.471C33.515,24.233,32.3,25,30.254,25c-1.453,0-2.845-0.581-3.866-1.615  C25.367,22.352,24.802,20.953,24.819,19.501"/></svg>