<?xml version="1.0" encoding="iso-8859-1"?>
<!-- Generator: Adobe Illustrator 23.0.6, SVG Export Plug-In . SVG Version: 6.00 Build 0)  -->
<svg version="1.1" baseProfile="basic" id="&#x421;&#x43B;&#x43E;&#x439;_1"
	 xmlns="http://www.w3.org/2000/svg" xmlns:xlink="http://www.w3.org/1999/xlink" x="0px" y="0px" viewBox="0 0 64 64"
	 xml:space="preserve">
<linearGradient id="SVGID_1_" gradientUnits="userSpaceOnUse" x1="32" y1="10.0596" x2="32" y2="39.3929">
	<stop  offset="0" style="stop-color:#E6ABFF"/>
	<stop  offset="1" style="stop-color:#6DC7FF"/>
</linearGradient>
<polygon style="fill:url(#SVGID_1_);" points="39.004,10.06 32,22.06 24.996,10.06 14.879,10.06 32,39.393 49.121,10.06 "/>
<linearGradient id="SVGID_2_" gradientUnits="userSpaceOnUse" x1="32" y1="59.0596" x2="32" y2="9.0596">
	<stop  offset="0" style="stop-color:#1A6DFF"/>
	<stop  offset="1" style="stop-color:#C822FF"/>
</linearGradient>
<path style="fill:url(#SVGID_2_);" d="M32,59.06c-0.355,0-0.685-0.188-0.863-0.496l-28.018-48c-0.181-0.31-0.183-0.691-0.004-1.002
	S3.624,9.06,3.982,9.06h21.014c0.355,0,0.685,0.188,0.863,0.496L32,20.076l6.141-10.521c0.179-0.308,0.508-0.496,0.863-0.496h21.014
	c0.358,0,0.688,0.191,0.867,0.502s0.177,0.692-0.004,1.002l-28.018,48C32.685,58.871,32.355,59.06,32,59.06z M5.724,11.06L32,56.076
	L58.276,11.06H39.578l-6.715,11.504c-0.357,0.615-1.369,0.615-1.727,0L24.422,11.06H5.724z"/>
</svg>